# xmcd
#
# Track frame offsets:
#	150
#	16719
#	31995
#	51465
#
# Disc length: 876 seconds
# Revision: 0
# Processed by: cddbd v1.5.2PL0 Copyright (c) Steve Scherf et al.
# Submitted via: dBpowerAMP V12.0
#
DISCID=28036a04
DTITLE=Krazy House - 4 Now
DYEAR=1997
DGENRE=Canadian
TTITLE0=Twist And Turn
TTITLE1=What Johnny Knows
TTITLE2=How Dare I
TTITLE3=It Just Doesn't Matter
EXTD=
EXTT0=
EXTT1=
EXTT2=
EXTT3=
PLAYORDER=
